<svg width="217" height="388" viewBox="0 0 217 388" fill="none" xmlns="http://www.w3.org/2000/svg">
<g clip-path="url(#clip0_104_135)">
<path d="M159.034 0H37.4472C18.5367 0 3.20679 15.33 3.20679 34.2404V312.08C3.20679 330.99 18.5367 346.32 37.4472 346.32H159.034C177.945 346.32 193.275 330.99 193.275 312.08V34.2404C193.275 15.33 177.945 0 159.034 0Z" fill="#3F3D56"/>
<path d="M190.068 34.2427V312.08C190.059 320.308 186.786 328.196 180.968 334.014C175.15 339.832 167.261 343.105 159.033 343.115H37.4483C29.2203 343.105 21.332 339.832 15.5139 334.014C9.69587 328.196 6.42309 320.308 6.41357 312.08V34.2427C6.4231 26.0147 9.69587 18.1265 15.5139 12.3084C21.332 6.49034 29.2203 3.21756 37.4483 3.20804H53.3475V8.70018C53.3477 11.1866 54.3354 13.5711 56.0936 15.3292C57.8517 17.0874 60.2363 18.0752 62.7227 18.0753C83.3065 24.2932 107.468 23.3227 133.759 18.0753C136.245 18.0752 138.63 17.0874 140.388 15.3292C142.146 13.5711 143.134 11.1866 143.134 8.70018V3.20804H159.033C167.261 3.21757 175.15 6.49034 180.968 12.3084C186.786 18.1265 190.059 26.0147 190.068 34.2427Z" fill="white"/>
<path d="M2.33212 70.2552C1.71382 70.2544 1.12105 70.0085 0.683844 69.5713C0.246639 69.1341 0.00070828 68.5413 0 67.923V63.2588C0 62.6403 0.245703 62.0471 0.683061 61.6097C1.12042 61.1724 1.7136 60.9267 2.33212 60.9267C2.95064 60.9267 3.54382 61.1724 3.98118 61.6097C4.41854 62.0471 4.66424 62.6403 4.66424 63.2588V67.923C4.66354 68.5413 4.4176 69.1341 3.9804 69.5713C3.54319 70.0085 2.95042 70.2544 2.33212 70.2552Z" fill="#3F3D56"/>
<path d="M2.33212 94.1719C1.71382 94.1712 1.12105 93.9253 0.683844 93.4881C0.246639 93.0509 0.000706741 92.4581 0 91.8398V79.0006C0 78.3821 0.245703 77.7889 0.683061 77.3515C1.12042 76.9142 1.7136 76.6685 2.33212 76.6685C2.95064 76.6685 3.54382 76.9142 3.98118 77.3515C4.41854 77.7889 4.66424 78.3821 4.66424 79.0006V91.8398C4.66354 92.4581 4.4176 93.0509 3.9804 93.4881C3.54319 93.9253 2.95042 94.1712 2.33212 94.1719Z" fill="#3F3D56"/>
<path d="M2.33212 113.399C1.71382 113.399 1.12105 113.153 0.683844 112.716C0.246639 112.278 0.000706741 111.686 0 111.067V98.2281C0 97.6096 0.245703 97.0164 0.683061 96.579C1.12042 96.1417 1.7136 95.896 2.33212 95.896C2.95064 95.896 3.54382 96.1417 3.98118 96.579C4.41854 97.0164 4.66424 97.6096 4.66424 98.2281V111.067C4.66353 111.686 4.4176 112.278 3.9804 112.716C3.5432 113.153 2.95042 113.399 2.33212 113.399Z" fill="#3F3D56"/>
<path d="M193.567 66.9155C192.949 66.915 192.357 67.1598 191.919 67.596C191.482 68.0322 191.236 68.6242 191.235 69.2418V100.574C191.235 101.192 191.481 101.786 191.918 102.223C192.355 102.66 192.948 102.906 193.567 102.906C194.186 102.906 194.779 102.66 195.216 102.223C195.653 101.786 195.899 101.192 195.899 100.574V69.2418C195.897 68.6245 195.651 68.0331 195.213 67.5971C194.776 67.1611 194.184 66.916 193.567 66.9155Z" fill="#3F3D56"/>
<path d="M46.4011 16.9505H30.6593C29.8861 16.9505 29.1447 16.6433 28.598 16.0966C28.0513 15.5499 27.7441 14.8085 27.7441 14.0353C27.7441 13.2622 28.0513 12.5207 28.598 11.974C29.1447 11.4273 29.8861 11.1202 30.6593 11.1202H46.4011C47.1743 11.1202 47.9157 11.4273 48.4624 11.974C49.0091 12.5207 49.3163 13.2622 49.3163 14.0353C49.3163 14.8085 49.0091 15.5499 48.4624 16.0966C47.9157 16.6433 47.1743 16.9505 46.4011 16.9505Z" fill="#E6E6E6"/>
<path d="M137.863 308.847C133.476 309.122 131.051 303.671 134.37 300.495C134.492 300.012 134.579 299.665 134.701 299.182C134.657 299.077 134.613 298.972 134.569 298.867C130.133 288.288 121.15 294.227 110.699 298.956C102.079 302.856 93.3904 307.937 100.6 327.72C102.114 331.876 100.298 336.58 101.272 340.887C92.102 320.884 87.3403 299.143 87.3096 277.138C87.3077 271.617 87.6145 266.099 88.2286 260.611C88.7361 256.113 89.4402 251.646 90.3408 247.212C94.1234 228.755 101.218 211.137 111.282 195.209C110.001 195.227 108.718 195.241 107.432 195.251C105.12 199.027 102.965 202.893 100.967 206.848C101.424 203.007 101.5 199.131 101.191 195.275C85.6065 195.27 70.0331 194.771 56.264 193.78C56.7863 235.979 72.3634 244.779 91.4653 224.568C92.0002 224.842 92.5215 225.116 93.0564 225.377C88.4553 238.416 85.5692 251.999 84.4706 265.782C83.8487 273.914 83.8854 282.083 84.5804 290.209C84.5666 290.113 84.5529 290.017 84.5392 289.921C82.7835 280.885 77.9633 272.732 70.8925 266.838C60.3906 258.211 45.5535 255.034 34.2238 248.1C28.77 244.762 21.7814 249.076 22.7332 255.399C22.7484 255.5 22.7639 255.6 22.7796 255.701C24.4685 256.389 26.1129 257.182 27.7033 258.074C28.6134 258.588 29.5043 259.133 30.376 259.709C35.3438 262.995 33.6269 270.696 27.7406 271.604L27.6072 271.625C27.5112 271.638 27.4289 271.652 27.333 271.666C30.2188 278.556 34.269 284.898 39.3063 290.415C40.7109 333.756 63.5148 328.167 87.9131 311.742H87.9269C90.4045 322.508 93.9944 332.988 98.6385 343.013H136.904C137.041 342.587 137.165 342.148 137.288 341.723C133.746 341.946 130.19 341.734 126.7 341.093C129.539 337.609 132.378 334.098 135.217 330.614C135.28 330.549 135.34 330.48 135.395 330.408C136.835 328.625 138.289 326.856 139.729 325.073L139.73 325.071C139.807 319.606 139.18 314.153 137.864 308.848L137.863 308.847Z" fill="#244757"/>
<path d="M97.0887 176.674C93.3765 167.719 86.4184 160.177 80.2911 152.435C72.9311 143.136 57.8388 147.194 56.5421 158.982C56.5296 159.096 56.5173 159.21 56.5054 159.324C57.4155 159.838 58.3064 160.383 59.1781 160.959C64.1459 164.245 62.429 171.946 56.5427 172.855L56.4094 172.875C56.7336 176.155 57.3067 179.406 58.1238 182.599C57.1466 186.258 56.5239 190.002 56.2642 193.78C70.0332 194.771 85.6066 195.27 101.192 195.275C100.686 188.421 99.1621 181.672 97.0887 176.674Z" fill="#E6E6E6"/>
<path d="M137.15 165.325C138.517 162.608 139.482 159.706 140.017 156.712C139.18 156.822 136.862 144.08 137.493 143.299C136.328 141.529 134.241 140.65 132.967 138.923C126.635 130.337 117.909 131.837 113.355 143.504C103.624 148.415 103.53 156.56 109.501 164.393C113.299 169.376 113.821 176.119 117.154 181.454C116.811 181.893 116.454 182.318 116.111 182.757C112.565 187.316 109.278 192.071 106.266 197C107.551 196.99 108.835 196.976 110.116 196.958C113.138 192.177 116.426 187.568 119.965 183.155C127.382 179.108 133.38 172.886 137.15 165.325Z" fill="#E6E6E6"/>
<path opacity="0.1" d="M189.682 34.1165V182.521C189.682 199.633 6.02783 199.633 6.02783 182.521V34.1165C6.03736 25.8885 9.31013 18.0002 15.1282 12.1822C20.9463 6.36409 28.8345 3.09131 37.0625 3.08179H52.9618V8.57394C52.9619 11.0603 53.9497 13.4448 55.7078 15.203C57.466 16.9611 59.8505 17.9489 62.3369 17.9491C82.0465 24.1393 106.379 23.1202 133.373 17.9491C135.86 17.9489 138.244 16.9611 140.002 15.203C141.761 13.4448 142.748 11.0603 142.748 8.57394V3.08179H158.648C166.876 3.09131 174.764 6.36409 180.582 12.1822C186.4 18.0002 189.673 25.8885 189.682 34.1165Z" fill="black"/>
<path d="M115.318 50.1534H110.071C108.062 50.1556 106.135 50.9549 104.714 52.3758C103.293 53.7968 102.494 55.7233 102.492 57.7328V63.5631H93.1631C91.1536 63.5653 89.2271 64.3646 87.8062 65.7855C86.3852 67.2064 85.586 69.133 85.5837 71.1425V82.8031C85.586 84.8126 86.3852 86.7392 87.8062 88.1601C89.2271 89.581 91.1536 90.3803 93.1631 90.3825H104.824C106.833 90.3803 108.76 89.581 110.181 88.1601C111.602 86.7392 112.401 84.8126 112.403 82.8031V71.1425C112.401 69.133 111.602 67.2065 110.181 65.7855C108.76 64.3646 106.833 63.5653 104.824 63.5631H103.658V57.7328C103.66 56.0325 104.336 54.4023 105.538 53.2C106.741 51.9977 108.371 51.3214 110.071 51.3195H115.318C117.019 51.3214 118.649 51.9977 119.851 53.2C121.053 54.4023 121.73 56.0325 121.732 57.7328V64.1461H122.898V57.7328C122.895 55.7233 122.096 53.7968 120.675 52.3758C119.254 50.9549 117.328 50.1556 115.318 50.1534ZM111.237 71.1425V82.8031C111.235 84.5034 110.559 86.1336 109.357 87.3359C108.154 88.5382 106.524 89.2145 104.824 89.2164H93.1631C91.4628 89.2145 89.8327 88.5382 88.6303 87.3359C87.428 86.1336 86.7517 84.5034 86.7498 82.8031V71.1425C86.7517 69.4422 87.428 67.812 88.6303 66.6097C89.8327 65.4074 91.4628 64.7311 93.1631 64.7292C98.6841 67.9413 101.726 66.2799 104.824 64.7292C106.524 64.7311 108.154 65.4074 109.357 66.6097C110.559 67.812 111.235 69.4422 111.237 71.1425Z" fill="white"/>
<path d="M98.9936 82.2201C100.031 82.2201 101.046 81.9123 101.909 81.3357C102.772 80.7592 103.444 79.9397 103.841 78.9808C104.239 78.022 104.343 76.967 104.14 75.9491C103.938 74.9312 103.438 73.9963 102.704 73.2624C101.97 72.5286 101.035 72.0288 100.017 71.8264C98.9995 71.6239 97.9444 71.7278 96.9856 72.1249C96.0268 72.5221 95.2072 73.1947 94.6307 74.0576C94.0541 74.9205 93.7463 75.935 93.7463 76.9728C93.748 78.364 94.3013 79.6977 95.285 80.6814C96.2687 81.6651 97.6024 82.2185 98.9936 82.2201ZM98.9936 75.8067C101.244 75.8067 103.075 74.7224 103.075 76.9728C103.075 78.0552 102.645 79.0933 101.879 79.8587C101.114 80.624 100.076 81.054 98.9936 81.054C97.9112 81.054 96.8732 80.624 96.1078 79.8587C95.3424 79.0933 94.9124 78.0552 94.9124 76.9728C94.9124 74.7224 96.7432 75.8067 98.9936 75.8067Z" fill="white"/>
<path d="M98.9935 78.7219C99.9595 78.7219 100.743 77.9388 100.743 76.9728C100.743 76.0068 99.9595 75.2238 98.9935 75.2238C98.0275 75.2238 97.2444 76.0068 97.2444 76.9728C97.2444 77.9388 98.0275 78.7219 98.9935 78.7219Z" fill="white"/>
<path d="M195.899 83.9692H191.695V85.1352H195.899V83.9692Z" fill="white"/>
<path opacity="0.1" d="M6.29175 179.617V182.532C6.29175 199.644 189.946 199.644 189.946 182.532V179.617C189.946 196.729 6.29175 196.729 6.29175 179.617Z" fill="black"/>
<path d="M168.507 221.329C169.647 221.096 170.652 220.428 171.308 219.466C171.963 218.504 172.217 217.324 172.016 216.177C171.971 215.945 171.908 215.717 171.825 215.495L183.771 205.477L180.82 197.627L165.94 213.119C165.046 213.532 164.314 214.228 163.858 215.1C163.402 215.972 163.247 216.971 163.418 217.94C163.625 219.052 164.266 220.036 165.198 220.676C166.131 221.316 167.28 221.559 168.392 221.352C168.43 221.345 168.469 221.337 168.507 221.329Z" fill="#A0616A"/>
<path d="M174.131 162.216L169.394 165.993C169.394 165.993 163.733 176.285 167.791 178.42C171.849 180.555 184.464 187.654 184.464 187.654C184.464 187.654 179.251 192.844 178.636 195.365C178.021 197.886 179.382 200.126 177.221 199.599C175.061 199.072 174.999 200.788 174.472 202.949C173.945 205.11 170.431 207.1 170.431 207.1L177.147 212.055C177.147 212.055 180.256 213.153 180.511 210.544C180.766 207.936 180.058 208.304 182.219 208.831C184.379 209.358 186.2 205.977 187.351 202.823C188.502 199.67 200.244 184.993 200.244 184.993L187.959 171.322C184.209 167.149 179.446 164.012 174.131 162.216V162.216Z" fill="#244757"/>
<path d="M173.052 376.447L168.161 376.406L165.996 357.101L173.215 357.162L173.052 376.447Z" fill="#A0616A"/>
<path d="M157.386 384.224C157.382 384.804 157.607 385.362 158.014 385.775C158.42 386.189 158.974 386.424 159.554 386.43L169.278 386.511L170.98 383.06L171.606 386.529L175.275 386.562L174.348 374.192L173.072 374.107L167.865 373.748L166.185 373.636L166.156 377.136L158.344 382.434C158.052 382.632 157.812 382.899 157.645 383.211C157.478 383.523 157.389 383.87 157.386 384.224Z" fill="#2F2E41"/>
<path d="M128.15 376.447L123.259 376.406L121.094 357.101L128.312 357.162L128.15 376.447Z" fill="#A0616A"/>
<path d="M112.484 384.224C112.479 384.804 112.705 385.362 113.112 385.775C113.518 386.189 114.072 386.424 114.652 386.43L124.376 386.511L126.078 383.06L126.703 386.529L130.372 386.562L129.446 374.192L128.169 374.107L122.963 373.748L121.283 373.636L121.253 377.136L113.442 382.434C113.149 382.632 112.909 382.899 112.742 383.211C112.575 383.523 112.487 383.87 112.484 384.224Z" fill="#2F2E41"/>
<path d="M140.803 212.973C140.803 212.973 131.412 217.6 133.86 220.385C136.308 223.169 134.296 224.744 131.244 227.36C128.193 229.975 122.049 260.616 122.049 260.616L114.094 308.08C114.094 308.08 116.205 349.524 117.622 351C119.038 352.476 121.218 350.296 119.038 352.476C116.858 354.656 115.115 352.912 116.858 354.656C118.602 356.399 119.038 361.195 119.038 361.195L130.335 360.243C130.335 360.243 137.688 328.386 132.722 314.274L152.203 262.65L158.092 312.462C158.092 312.462 161.325 352.912 163.504 354.22C165.684 355.528 167.255 355.616 165.379 357.315C163.504 359.015 163.504 356.399 163.504 359.015V363.354L174.05 364.801C174.05 364.801 178.948 326.023 176.675 308.08L183.558 247.849L178.197 220.707L172.659 213.409L140.803 212.973Z" fill="#2F2E41"/>
<path d="M95.485 198.293C96.4251 198.98 97.596 199.272 98.7485 199.109C99.901 198.945 100.944 198.338 101.656 197.417C101.798 197.228 101.924 197.027 102.032 196.817L117.483 198.898L121.298 191.429L99.8238 190.867C98.9171 190.484 97.9091 190.412 96.9572 190.662C96.0054 190.912 95.1631 191.471 94.5619 192.25C94.224 192.696 93.9774 193.205 93.8362 193.747C93.695 194.289 93.662 194.854 93.7389 195.408C93.8159 195.963 94.0014 196.497 94.2848 196.98C94.5681 197.464 94.9439 197.886 95.3906 198.224C95.4217 198.247 95.4532 198.271 95.485 198.293Z" fill="#A0616A"/>
<path d="M142.965 162.633L136.983 161.677C136.983 161.677 129.802 165.597 130.957 170.034C132.113 174.471 131.123 187.405 131.123 187.405C131.123 187.405 123.775 187.048 121.498 188.291C119.22 189.535 118.482 192.05 117.416 190.098C116.35 188.145 117.474 187.11 115.522 188.175C113.57 189.241 107.298 190.131 107.298 190.131L104.777 198.716C104.777 198.716 108.28 203.532 110.38 201.964C112.48 200.395 112.893 198.057 113.959 200.01C115.024 201.962 115.322 205.6 118.427 204.327C121.533 203.054 143.719 197.276 143.719 197.276L146.4 170.472L142.965 162.633Z" fill="#244757"/>
<path d="M137.126 219.592C137.126 219.592 132.902 212.85 133.706 211.861C134.511 210.873 135.518 212.582 133.706 210.855C131.895 209.129 142.054 197.608 142.721 195.911C143.388 194.214 132.552 164.583 132.552 164.583L141.781 159.025L149.581 148.052L163.53 150.283L168.438 160.232L175.37 162.678L175.953 163.261V181.335C175.953 181.335 179.039 196.763 172.251 202.074C172.251 202.074 175.489 209.129 174.618 210.437C173.746 211.745 189.422 228.93 177.119 230.893C163.643 233.043 134.898 218.829 137.126 219.592Z" fill="#244757"/>
<path d="M67.9365 386.709C67.9363 386.8 67.954 386.89 67.9888 386.975C68.0235 387.059 68.0747 387.136 68.1391 387.2C68.2036 387.265 68.2802 387.316 68.3645 387.35C68.4488 387.385 68.5392 387.403 68.6304 387.403H216.306C216.49 387.403 216.667 387.33 216.797 387.199C216.927 387.069 217 386.893 217 386.709C217 386.525 216.927 386.348 216.797 386.218C216.667 386.088 216.49 386.015 216.306 386.015H68.6304C68.5392 386.015 68.4488 386.033 68.3645 386.067C68.2802 386.102 68.2036 386.153 68.1391 386.218C68.0747 386.282 68.0236 386.359 67.9888 386.443C67.954 386.527 67.9363 386.618 67.9365 386.709Z" fill="#CCCCCC"/>
<path d="M158.61 150.799C166.455 150.799 172.815 144.439 172.815 136.594C172.815 128.749 166.455 122.39 158.61 122.39C150.765 122.39 144.406 128.749 144.406 136.594C144.406 144.439 150.765 150.799 158.61 150.799Z" fill="#A0616A"/>
<path d="M169.586 126.093C169.44 124.815 168.564 123.235 167.955 122.101C167.345 120.968 166.168 120.043 164.884 120.122C164.359 120.183 163.857 120.369 163.42 120.666C162.983 120.963 162.625 121.361 162.375 121.827C161.885 122.764 161.617 123.802 161.594 124.86C161.46 127.219 161.854 129.578 162.747 131.766C163.641 133.954 165.011 135.915 166.759 137.506C167.754 138.399 168.952 139.193 170.289 139.224C170.896 139.209 171.495 139.073 172.048 138.824C172.602 138.575 173.101 138.218 173.515 137.773C175.679 135.606 176.006 132.043 174.85 129.207C173.694 126.37 173.179 125.267 170.537 123.717" fill="#2F2E41"/>
<path d="M149.632 146.522C149.87 147.786 147.684 153.796 148.382 154.879C148.382 154.879 155.614 157.391 158.379 157.572C161.757 157.79 164.474 156.405 167.634 154.319C167.691 153.187 168.018 152.086 168.589 151.107C168.541 151.865 168.695 152.623 169.035 153.302C180.868 150.363 177.972 139.744 170.825 134.769L166.074 123.841C167.499 124.316 163.196 116.976 158.659 122.292C152.982 116.51 141.983 124.834 140.605 132.269C141.931 130.591 142.622 130.789 142.962 131.946C143.353 130.973 143.972 130.107 144.767 129.423C144.371 130.205 144.169 131.07 144.178 131.946C153.134 132.502 151.467 138.544 144.126 147.595C146.841 145.905 145.009 153.186 146.458 154.927C146.53 153.711 149.375 147.705 149.632 146.522Z" fill="#2F2E41"/>
<path d="M162.556 134.886C162.671 134.885 162.781 134.844 162.868 134.769C162.954 134.693 163.01 134.589 163.026 134.476C163.042 134.362 163.016 134.247 162.954 134.151C162.891 134.055 162.796 133.985 162.686 133.954C162.584 133.369 162.573 132.772 162.653 132.184C162.808 129.56 163.066 125.167 158.802 122.202C158.699 122.131 158.571 122.103 158.447 122.126C158.324 122.148 158.214 122.219 158.142 122.322C158.07 122.425 158.042 122.552 158.064 122.676C158.087 122.8 158.157 122.91 158.26 122.982C162.086 125.643 161.857 129.546 161.705 132.128C161.618 133.604 161.555 134.671 162.45 134.874C162.485 134.882 162.521 134.886 162.556 134.886Z" fill="#244757"/>
<path d="M162.334 124.502C165.234 123.298 168.323 122.614 171.46 122.48C173.948 122.374 176.916 122.929 177.927 125.204C178.541 126.585 178.214 128.203 177.653 129.606C177.091 131.008 174.468 133.84 175.979 133.809C179.772 133.731 181.392 137.123 179.467 142.395C178.351 145.452 185.277 145.334 188.505 145.743C186.079 146.643 183.617 147.552 181.038 147.768C178.46 147.984 175.706 147.423 173.781 145.695C171.698 143.824 170.898 140.918 170.543 138.141C170.189 135.364 170.171 132.503 169.229 129.866C168.288 127.23 166.125 124.774 163.335 124.54" fill="#2F2E41"/>
</g>
<defs>
<clipPath id="clip0_104_135">
<rect width="217" height="387.403" fill="white"/>
</clipPath>
</defs>
</svg>
