<svg width="350" height="350" viewBox="0 0 350 350" fill="none" xmlns="http://www.w3.org/2000/svg">
<circle cx="175" cy="175" r="172" stroke="#244757" stroke-width="6"/>
<path d="M54 53L293.364 295.658" stroke="#244757" stroke-width="6"/>
<g clip-path="url(#clip0_52_99)">
<path d="M260.825 86.9327L61.6783 144.956L66.9532 163.06L266.1 105.037L260.825 86.9327Z" fill="#3F3D56"/>
<path d="M85.4711 228.115L56.1184 127.371C55.9008 126.624 55.9888 125.821 56.3631 125.139C56.7374 124.457 57.3673 123.952 58.1142 123.734L252.433 67.1178C253.18 66.9009 253.982 66.9893 254.664 67.3634C255.346 67.7375 255.852 68.3669 256.07 69.1134L282.074 158.365L281.269 158.6L255.265 69.3479C255.109 68.8149 254.748 68.3656 254.261 68.0984C253.774 67.8312 253.201 67.7679 252.667 67.9223L58.3486 124.539C57.8151 124.694 57.3652 125.055 57.0979 125.543C56.8305 126.03 56.7676 126.603 56.9231 127.137L86.2757 227.881L85.4711 228.115Z" fill="#3F3D56"/>
<path d="M239.065 158.78C238.475 158.779 237.902 158.588 237.43 158.234C236.959 157.88 236.614 157.383 236.449 156.818L231.525 139.92C231.324 139.227 231.406 138.482 231.754 137.849C232.101 137.216 232.685 136.746 233.379 136.543L250.276 131.62C250.969 131.419 251.715 131.501 252.348 131.849C252.981 132.196 253.45 132.781 253.653 133.474L258.576 150.371C258.777 151.064 258.695 151.809 258.348 152.443C258 153.076 257.416 153.545 256.723 153.748L239.826 158.671C239.578 158.743 239.322 158.78 239.065 158.78Z" fill="#244757"/>
<path d="M85.0174 127.683C84.9668 127.509 84.9066 127.338 84.8371 127.171C84.3647 126.025 83.4851 125.093 82.3675 124.556C81.2499 124.018 79.973 123.912 78.7822 124.259C77.5915 124.606 76.5708 125.38 75.9164 126.434C75.262 127.487 75.02 128.745 75.2369 129.967C75.2674 130.145 75.308 130.321 75.3585 130.495C75.6645 131.539 76.3006 132.456 77.1716 133.109C78.0426 133.762 79.1016 134.115 80.19 134.115C80.6652 134.116 81.138 134.048 81.5938 133.914C82.8731 133.54 83.952 132.674 84.5938 131.506C85.2356 130.338 85.3879 128.963 85.0174 127.683ZM81.3591 133.109C80.2922 133.419 79.1461 133.293 78.172 132.759C77.198 132.225 76.4755 131.326 76.163 130.26C76.114 130.086 76.0747 129.91 76.0456 129.732C75.8884 128.726 76.1031 127.697 76.6494 126.838C77.1958 125.978 78.0364 125.347 79.0141 125.063C79.9918 124.778 81.0397 124.86 81.9618 125.292C82.8839 125.724 83.617 126.477 84.0242 127.41C84.1001 127.574 84.1631 127.744 84.2128 127.917C84.5221 128.984 84.3952 130.13 83.8602 131.104C83.3251 132.077 82.4256 132.799 81.3591 133.109V133.109Z" fill="#244757"/>
<path d="M72.6839 131.274C72.4157 130.353 72.4415 129.371 72.7576 128.466C73.0737 127.56 73.6644 126.776 74.4474 126.221C73.7138 126.186 72.9823 126.326 72.3138 126.63C71.6453 126.934 71.0592 127.394 70.6043 127.97C70.1493 128.547 69.8388 129.224 69.6984 129.945C69.5581 130.666 69.5921 131.41 69.7975 132.115C70.003 132.82 70.374 133.466 70.8795 133.999C71.3851 134.531 72.0107 134.936 72.7041 135.178C73.3976 135.42 74.1388 135.492 74.8661 135.39C75.5933 135.287 76.2856 135.013 76.8852 134.589C75.9271 134.542 75.0075 134.197 74.2544 133.603C73.5014 133.009 72.9524 132.195 72.6839 131.274Z" fill="#244757"/>
<path d="M202.949 152.042C202.86 151.721 202.708 151.421 202.503 151.159C202.298 150.897 202.043 150.678 201.753 150.515C201.463 150.351 201.144 150.246 200.813 150.206C200.483 150.167 200.148 150.192 199.827 150.282L172.007 158.063L169.011 158.902H187.826L190.822 158.063L201.193 155.164C201.84 154.982 202.388 154.551 202.717 153.966C203.046 153.381 203.13 152.689 202.949 152.042Z" fill="#CCCCCC"/>
<path d="M183.267 146.23C183.085 145.583 182.655 145.035 182.069 144.705C181.484 144.376 180.792 144.293 180.145 144.474L138.4 156.148C137.816 156.314 137.311 156.682 136.975 157.187C136.64 157.692 136.495 158.3 136.568 158.902H147.376L150.376 158.064L181.511 149.356C182.158 149.174 182.706 148.742 183.035 148.156C183.365 147.57 183.448 146.877 183.267 146.23Z" fill="#CCCCCC"/>
<path d="M290.737 158.063H88.3377C87.56 158.063 86.8144 158.373 86.2645 158.923C85.7146 159.473 85.4053 160.218 85.4044 160.996V280.843C85.4053 281.621 85.7146 282.366 86.2645 282.916C86.8144 283.466 87.56 283.775 88.3377 283.776H290.737C291.514 283.775 292.26 283.466 292.81 282.916C293.36 282.366 293.669 281.62 293.67 280.843V160.996C293.669 160.218 293.36 159.473 292.81 158.923C292.26 158.373 291.514 158.063 290.737 158.063ZM292.832 280.843C292.832 281.398 292.611 281.931 292.218 282.324C291.825 282.717 291.292 282.938 290.737 282.938H88.3377C87.7821 282.938 87.2493 282.717 86.8564 282.324C86.4635 281.931 86.2427 281.398 86.2425 280.843V160.996C86.2427 160.44 86.4636 159.907 86.8564 159.515C87.2493 159.122 87.7821 158.901 88.3377 158.901H290.737C291.292 158.901 291.825 159.122 292.218 159.515C292.611 159.907 292.832 160.44 292.832 160.996V280.843Z" fill="#3F3D56"/>
<path d="M108.031 174.406C107.037 174.406 106.065 174.111 105.238 173.559C104.411 173.006 103.766 172.221 103.386 171.302C103.005 170.383 102.905 169.372 103.099 168.397C103.293 167.421 103.772 166.525 104.476 165.822C105.179 165.119 106.075 164.64 107.05 164.446C108.026 164.252 109.037 164.351 109.956 164.732C110.875 165.113 111.66 165.757 112.212 166.584C112.765 167.411 113.06 168.383 113.06 169.378C113.058 170.711 112.528 171.989 111.585 172.932C110.643 173.874 109.365 174.405 108.031 174.406ZM108.031 165.187C107.203 165.187 106.392 165.433 105.703 165.893C105.014 166.354 104.477 167.008 104.16 167.774C103.843 168.54 103.76 169.382 103.921 170.195C104.083 171.008 104.482 171.755 105.068 172.341C105.654 172.927 106.401 173.326 107.214 173.488C108.027 173.649 108.869 173.566 109.635 173.249C110.401 172.932 111.055 172.395 111.516 171.706C111.976 171.017 112.222 170.207 112.222 169.378C112.221 168.267 111.779 167.202 110.993 166.416C110.207 165.63 109.142 165.189 108.031 165.187Z" fill="#244757"/>
<path d="M100.215 169.378C100.215 168.418 100.515 167.483 101.072 166.702C101.628 165.921 102.415 165.333 103.322 165.02C102.627 164.781 101.886 164.711 101.159 164.816C100.432 164.921 99.7408 165.198 99.1427 165.624C98.5447 166.051 98.0571 166.614 97.7208 167.267C97.3844 167.919 97.2089 168.643 97.2089 169.378C97.2089 170.112 97.3844 170.836 97.7208 171.489C98.0571 172.142 98.5447 172.705 99.1427 173.131C99.7408 173.557 100.432 173.835 101.159 173.94C101.886 174.045 102.627 173.975 103.322 173.735C102.415 173.422 101.628 172.834 101.072 172.053C100.515 171.272 100.215 170.337 100.215 169.378Z" fill="#244757"/>
<path d="M128.415 228.789C127.415 228.788 126.457 228.39 125.75 227.683C125.043 226.976 124.645 226.018 124.644 225.018V213.703C124.644 212.703 125.041 211.744 125.748 211.037C126.456 210.329 127.415 209.932 128.415 209.932C129.415 209.932 130.375 210.329 131.082 211.037C131.789 211.744 132.187 212.703 132.187 213.703V225.018C132.185 226.018 131.788 226.976 131.081 227.683C130.374 228.39 129.415 228.788 128.415 228.789Z" fill="#244757"/>
<path d="M138.472 228.789C137.472 228.788 136.514 228.39 135.807 227.683C135.1 226.976 134.702 226.018 134.701 225.018V213.703C134.701 212.703 135.098 211.744 135.806 211.037C136.513 210.329 137.472 209.932 138.472 209.932C139.473 209.932 140.432 210.329 141.139 211.037C141.846 211.744 142.244 212.703 142.244 213.703V225.018C142.243 226.018 141.845 226.976 141.138 227.683C140.431 228.39 139.472 228.788 138.472 228.789Z" fill="#244757"/>
<path d="M148.529 228.789C147.529 228.788 146.571 228.39 145.864 227.683C145.157 226.976 144.759 226.018 144.758 225.018V213.703C144.758 212.703 145.155 211.744 145.863 211.037C146.57 210.329 147.529 209.932 148.529 209.932C149.53 209.932 150.489 210.329 151.196 211.037C151.903 211.744 152.301 212.703 152.301 213.703V225.018C152.3 226.018 151.902 226.976 151.195 227.683C150.488 228.39 149.529 228.788 148.529 228.789Z" fill="#244757"/>
<path d="M164.034 228.789C163.034 228.788 162.076 228.39 161.369 227.683C160.662 226.976 160.264 226.018 160.263 225.018V213.703C160.263 212.703 160.66 211.744 161.367 211.037C162.075 210.329 163.034 209.932 164.034 209.932C165.034 209.932 165.994 210.329 166.701 211.037C167.408 211.744 167.806 212.703 167.806 213.703V225.018C167.804 226.018 167.407 226.976 166.7 227.683C165.993 228.39 165.034 228.788 164.034 228.789Z" fill="#244757"/>
<path d="M174.091 228.789C173.091 228.788 172.133 228.39 171.426 227.683C170.719 226.976 170.321 226.018 170.32 225.018V213.703C170.32 212.703 170.717 211.744 171.424 211.037C172.132 210.329 173.091 209.932 174.091 209.932C175.091 209.932 176.051 210.329 176.758 211.037C177.465 211.744 177.863 212.703 177.863 213.703V225.018C177.861 226.018 177.464 226.976 176.757 227.683C176.05 228.39 175.091 228.788 174.091 228.789Z" fill="#244757"/>
<path d="M184.148 228.789C183.148 228.788 182.19 228.39 181.483 227.683C180.776 226.976 180.378 226.018 180.377 225.018V213.703C180.377 212.703 180.774 211.744 181.481 211.037C182.189 210.329 183.148 209.932 184.148 209.932C185.148 209.932 186.108 210.329 186.815 211.037C187.522 211.744 187.92 212.703 187.92 213.703V225.018C187.918 226.018 187.521 226.976 186.814 227.683C186.107 228.39 185.148 228.788 184.148 228.789Z" fill="#244757"/>
<path d="M199.653 228.789C198.653 228.788 197.694 228.39 196.987 227.683C196.28 226.976 195.883 226.018 195.881 225.018V213.703C195.881 212.703 196.279 211.744 196.986 211.037C197.693 210.329 198.653 209.932 199.653 209.932C200.653 209.932 201.612 210.329 202.32 211.037C203.027 211.744 203.424 212.703 203.424 213.703V225.018C203.423 226.018 203.025 226.976 202.318 227.683C201.611 228.39 200.653 228.788 199.653 228.789Z" fill="#244757"/>
<path d="M209.71 228.789C208.71 228.788 207.752 228.39 207.045 227.683C206.337 226.976 205.94 226.018 205.939 225.018V213.703C205.939 212.703 206.336 211.744 207.043 211.037C207.75 210.329 208.71 209.932 209.71 209.932C210.71 209.932 211.67 210.329 212.377 211.037C213.084 211.744 213.481 212.703 213.481 213.703V225.018C213.48 226.018 213.083 226.976 212.376 227.683C211.669 228.39 210.71 228.788 209.71 228.789Z" fill="#244757"/>
<path d="M219.767 228.789C218.767 228.788 217.809 228.39 217.102 227.683C216.394 226.976 215.997 226.018 215.996 225.018V213.703C215.996 212.703 216.393 211.744 217.1 211.037C217.808 210.329 218.767 209.932 219.767 209.932C220.767 209.932 221.727 210.329 222.434 211.037C223.141 211.744 223.538 212.703 223.538 213.703V225.018C223.537 226.018 223.14 226.976 222.433 227.683C221.726 228.39 220.767 228.788 219.767 228.789Z" fill="#244757"/>
<path d="M235.272 228.789C234.272 228.788 233.313 228.39 232.606 227.683C231.899 226.976 231.502 226.018 231.5 225.018V213.703C231.5 212.703 231.898 211.744 232.605 211.037C233.312 210.329 234.272 209.932 235.272 209.932C236.272 209.932 237.231 210.329 237.939 211.037C238.646 211.744 239.043 212.703 239.043 213.703V225.018C239.042 226.018 238.644 226.976 237.937 227.683C237.23 228.39 236.272 228.788 235.272 228.789Z" fill="#244757"/>
<path d="M245.329 228.789C244.329 228.788 243.37 228.39 242.663 227.683C241.956 226.976 241.559 226.018 241.557 225.018V213.703C241.557 212.703 241.955 211.744 242.662 211.037C243.369 210.329 244.329 209.932 245.329 209.932C246.329 209.932 247.288 210.329 247.996 211.037C248.703 211.744 249.1 212.703 249.1 213.703V225.018C249.099 226.018 248.701 226.976 247.994 227.683C247.287 228.39 246.329 228.788 245.329 228.789Z" fill="#244757"/>
<path d="M255.386 228.789C254.386 228.788 253.427 228.39 252.72 227.683C252.013 226.976 251.616 226.018 251.615 225.018V213.703C251.615 212.703 252.012 211.744 252.719 211.037C253.426 210.329 254.386 209.932 255.386 209.932C256.386 209.932 257.345 210.329 258.053 211.037C258.76 211.744 259.157 212.703 259.157 213.703V225.018C259.156 226.018 258.758 226.976 258.051 227.683C257.344 228.39 256.386 228.788 255.386 228.789Z" fill="#244757"/>
<path d="M153.985 270.764H99.7432C99.0711 270.764 98.4266 270.497 97.9513 270.021C97.4761 269.546 97.2091 268.902 97.2091 268.229C97.2091 267.557 97.4761 266.913 97.9513 266.438C98.4266 265.962 99.0711 265.695 99.7432 265.695H153.985C154.657 265.695 155.301 265.962 155.776 266.438C156.252 266.913 156.519 267.557 156.519 268.229C156.519 268.902 156.252 269.546 155.776 270.021C155.301 270.497 154.657 270.764 153.985 270.764Z" fill="#E6E6E6"/>
<path d="M136.594 259.868H117.134C116.462 259.868 115.817 259.601 115.342 259.126C114.866 258.651 114.599 258.006 114.599 257.334C114.599 256.662 114.866 256.018 115.342 255.542C115.817 255.067 116.462 254.8 117.134 254.8H136.594C137.266 254.8 137.911 255.067 138.386 255.542C138.861 256.018 139.128 256.662 139.128 257.334C139.128 258.006 138.861 258.651 138.386 259.126C137.911 259.601 137.266 259.868 136.594 259.868Z" fill="#E6E6E6"/>
<path d="M292.681 183.113H86.0917V183.951H292.681V183.113Z" fill="#3F3D56"/>
</g>
<defs>
<clipPath id="clip0_52_99">
<rect width="237.67" height="216.776" fill="white" transform="translate(56 67)"/>
</clipPath>
</defs>
</svg>
