<svg width="338" height="346" viewBox="0 0 338 346" fill="none" xmlns="http://www.w3.org/2000/svg">
<g clip-path="url(#clip0_49_23)">
<path d="M337.67 344.87C337.67 344.953 337.654 345.035 337.622 345.112C337.591 345.188 337.545 345.258 337.486 345.316C337.427 345.375 337.358 345.421 337.281 345.453C337.205 345.485 337.123 345.501 337.04 345.5H0.630151C0.463025 345.5 0.302741 345.434 0.184566 345.316C0.0663897 345.198 0 345.037 0 344.87C0 344.703 0.0663897 344.543 0.184566 344.425C0.302741 344.307 0.463025 344.24 0.630151 344.24H337.04C337.123 344.24 337.205 344.256 337.281 344.288C337.358 344.319 337.427 344.366 337.486 344.424C337.545 344.483 337.591 344.552 337.622 344.629C337.654 344.705 337.67 344.787 337.67 344.87Z" fill="#CCCCCC"/>
<path d="M273.822 15.6095C273.406 13.2979 272.379 11.14 270.846 9.36092C268.665 6.87933 266.017 4.85151 263.053 3.39325C260.089 1.93499 256.867 1.07485 253.57 0.861931C250.274 0.649018 246.968 1.0875 243.841 2.15235C240.714 3.2172 237.827 4.88756 235.345 7.06805L235.134 7.25868C232.172 4.38754 228.561 2.27281 224.608 1.09373C220.655 -0.0853465 216.476 -0.294024 212.425 0.485391C208.374 1.26481 204.571 3.00934 201.337 5.57113C198.104 8.13292 195.536 11.4364 193.851 15.2017C192.302 18.6474 191.593 22.4109 191.779 26.1838C191.966 29.9568 193.045 33.6317 194.926 36.9075C195.77 38.3845 196.762 39.7719 197.886 41.0485C199.046 42.3723 230.352 77.2 230.664 77.5494C230.702 77.5929 230.748 77.6277 230.8 77.6515C230.852 77.6753 230.909 77.6874 230.966 77.6871C230.977 77.6871 230.993 77.6818 231.009 77.6818C231.031 77.6816 231.052 77.6761 231.072 77.6659C231.175 77.6409 231.265 77.5762 231.321 77.4859L231.485 77.2158L231.681 76.8822L234.578 72.0423C242.611 58.6185 253.44 45.952 266.768 34.3975C267.626 33.6523 268.422 32.8375 269.146 31.9616C271.998 28.5521 273.719 24.3403 274.071 19.9093C274.171 18.4713 274.088 17.0263 273.822 15.6095Z" fill="#244757"/>
<path d="M130.192 287.875L136.088 268.673C128.994 260.866 120.101 254.908 110.182 251.317C119.873 267.372 110.483 288.316 114.396 306.656C115.66 312.367 118.193 317.72 121.808 322.318C125.422 326.917 130.025 330.643 135.275 333.221L144.222 344.307C148.913 336.112 151.771 326.998 152.6 317.592C153.428 308.187 152.208 298.713 149.023 289.824C147.187 284.855 144.732 280.137 141.717 275.782C136.401 282.032 130.192 287.875 130.192 287.875Z" fill="#F2F2F2"/>
<path d="M97.7726 290.328L94.4863 270.512C84.6549 266.688 74.0387 265.321 63.5593 266.531C79.3933 276.579 80.3289 299.513 92.0107 314.183C95.6892 318.73 100.344 322.392 105.63 324.896C110.916 327.4 116.697 328.682 122.546 328.648L135.498 334.58C136.042 325.154 134.535 315.721 131.082 306.933C127.629 298.145 122.312 290.21 115.497 283.674C111.638 280.046 107.337 276.918 102.696 274.364C100.724 282.33 97.7726 290.328 97.7726 290.328Z" fill="#F2F2F2"/>
<path d="M162.499 160.384L160.871 164.17L163.532 177.618L190.673 173.844L190.457 157.447L189.912 153.855L162.499 160.384Z" fill="#FFB6B6"/>
<path d="M148.476 334.67H154.464L157.314 311.574H148.476V334.67Z" fill="#FFB6B6"/>
<path d="M165.183 340.379L156.091 334.097V329.996L155.034 330.062L148.476 330.452L146.524 330.566L145.317 345.045H149.611L150.374 340.992L152.338 345.045H163.73C164.275 345.045 164.807 344.87 165.246 344.547C165.685 344.223 166.01 343.767 166.172 343.246C166.334 342.725 166.326 342.166 166.148 341.65C165.97 341.135 165.632 340.689 165.183 340.379Z" fill="#2F2E41"/>
<path d="M182.112 334.67H188.1L191.622 300.667L180.37 299.994L182.112 334.67Z" fill="#FFB6B6"/>
<path d="M198.818 340.379L189.726 334.097V329.996L188.573 330.062L181.902 330.464L180.16 330.566L178.953 345.045H183.247L184.009 340.992L185.973 345.045H197.365C197.911 345.045 198.442 344.87 198.881 344.547C199.321 344.223 199.645 343.767 199.808 343.246C199.97 342.725 199.961 342.166 199.783 341.65C199.606 341.135 199.267 340.689 198.818 340.379Z" fill="#2F2E41"/>
<path d="M145.935 314.753H145.958L147.11 277.199C146.364 275.761 145.986 274.162 146.009 272.543C146.031 270.924 146.454 269.335 147.238 267.919L147.403 267.621L146.976 265.639C146.427 263.093 146.679 260.44 147.697 258.042L148.771 223.012C144.933 198.137 163.225 181.915 163.225 181.915L161.544 168.877L191.129 169.55L190.626 181.915L196.508 202.126C199.604 232.289 199.789 261.838 196.622 290.681C196.615 290.764 196.627 290.848 196.658 290.925C196.979 291.902 197.092 292.936 196.99 293.959C196.887 294.983 196.572 295.973 196.063 296.867C195.931 297.095 195.84 297.345 195.795 297.605C195.143 302.661 195.058 296.265 194.193 301.277L194.361 301.362C194.967 301.571 195.227 302.41 194.942 303.236C194.657 304.062 193.934 304.563 193.329 304.354L177.513 304.523C176.907 304.314 176.647 303.474 176.932 302.648C177.217 301.822 177.94 301.322 178.546 301.531L179.529 302.029L177.883 296.643L177.306 296.104C177.03 295.846 176.815 295.529 176.679 295.176C176.542 294.823 176.487 294.444 176.518 294.067C176.549 293.69 176.664 293.325 176.856 292.999C177.048 292.673 177.311 292.395 177.625 292.185L178.103 276.549L178.336 269.929L177.857 262.42L175.638 228.643L167.243 270.179L158.667 315.171C158.867 315.351 159.017 315.58 159.103 315.835C159.189 316.091 159.208 316.364 159.158 316.629C159.08 316.998 158.874 317.329 158.578 317.565C158.282 317.8 157.913 317.925 157.535 317.918H145.893C145.649 317.918 145.408 317.861 145.189 317.752C144.971 317.644 144.78 317.486 144.632 317.292C144.484 317.098 144.384 316.872 144.337 316.632C144.291 316.393 144.301 316.146 144.366 315.91C144.464 315.572 144.671 315.275 144.954 315.066C145.238 314.857 145.582 314.747 145.935 314.753Z" fill="#2F2E41"/>
<path d="M156.288 96.4827C156.287 98.8804 156.875 101.242 157.999 103.359C159.124 105.477 160.751 107.286 162.738 108.627C164.726 109.969 167.012 110.803 169.396 111.055C171.78 111.307 174.19 110.97 176.414 110.073C178.638 109.176 180.607 107.747 182.15 105.912C183.692 104.076 184.761 101.89 185.261 99.5451C185.761 97.2002 185.678 94.7684 185.02 92.463C184.361 90.1576 183.146 88.0492 181.482 86.3229L181.412 86.2527C181.295 86.1296 181.177 86.0065 181.054 85.8893C181.054 85.8893 181.053 85.8892 181.052 85.8889C181.051 85.8886 181.051 85.8882 181.05 85.8876C181.05 85.8871 181.049 85.8864 181.049 85.8857C181.049 85.885 181.049 85.8842 181.049 85.8835C180.881 85.7608 180.726 85.6214 180.586 85.4675C178.608 82.7043 176.366 80.3874 170.936 81.8349C163.117 83.9188 156.288 88.3912 156.288 96.4827Z" fill="#2F2E41"/>
<path d="M236.752 90.2121C236.785 90.9958 236.646 91.7772 236.344 92.5014C236.043 93.2255 235.586 93.8748 235.007 94.4034C234.427 94.932 233.739 95.3271 232.99 95.5608C232.241 95.7946 231.45 95.8614 230.673 95.7564L192.897 126.759L187.127 116.617L226.074 89.3318C226.337 88.0376 227.065 86.8848 228.121 86.0918C229.177 85.2988 230.488 84.9207 231.804 85.0292C233.12 85.1377 234.351 85.7253 235.262 86.6805C236.174 87.6358 236.704 88.8923 236.752 90.2121V90.2121Z" fill="#FFB6B6"/>
<path d="M176.946 135.902C176.946 135.902 178.177 138.455 182.963 134.828C186.795 131.925 205.088 119.397 209.151 114.101C210.004 114.486 210.96 114.577 211.87 114.359C212.78 114.141 213.591 113.626 214.176 112.896L204.182 103.273C201.046 103.485 201.013 105.584 201.282 106.789L193.25 109.98L172.33 121.999L176.024 134.072L176.946 135.902Z" fill="#E6E6E6"/>
<path d="M174.544 112.155C181.328 112.155 186.827 106.655 186.827 99.8718C186.827 93.0881 181.328 87.5889 174.544 87.5889C167.761 87.5889 162.262 93.0881 162.262 99.8718C162.262 106.655 167.761 112.155 174.544 112.155Z" fill="#FFB7B7"/>
<path d="M191.3 160.797L191.426 153.945C191.924 153.261 196.104 147.285 195.167 141.316C194.729 138.506 193.204 136.146 190.645 134.308L188.994 130.465L186.55 124.784L179.397 120.526L178.406 118.508L177.59 116.833L167.723 115.848L165.291 119.121L165.243 119.127C163.008 119.634 160.909 120.618 159.088 122.009C157.088 123.526 155.467 125.486 154.353 127.734C153.238 129.983 152.659 132.459 152.662 134.968L152.722 142.931L152.734 144.072L152.74 145.177L158.895 161.746L159.13 162.389L161.544 168.88L161.129 169.565C160.683 170.31 160.518 171.19 160.665 172.046C160.811 172.902 161.259 173.677 161.928 174.231L162.216 178.291L162.739 178.146L165.711 177.318L188.195 171.042C189.042 170.806 189.789 170.302 190.327 169.607C190.346 169.582 190.364 169.556 190.381 169.529C190.47 169.418 190.548 169.3 190.615 169.175C191.126 167.883 191.18 167.535 191.186 167.175C191.932 166.324 192.363 165.243 192.407 164.113C192.451 162.982 192.104 161.871 191.426 160.965L191.3 160.797Z" fill="#E6E6E6"/>
<path d="M161.69 103.092C161.801 103.074 161.913 103.051 162.024 103.033C163.94 102.693 165.856 102.359 167.766 102.014L167.942 97.6839L170.256 101.563C175.535 103.314 180.474 102.324 185.121 100.139C186.653 99.4112 188.14 98.5914 189.574 97.6839C190.046 90.3611 187.085 85.6731 181.576 86.1648C181.375 86.1827 181.23 85.9773 181.054 85.8893C181.054 85.8893 181.053 85.8892 181.052 85.8889C181.051 85.8886 181.051 85.8882 181.05 85.8877C181.05 85.8871 181.049 85.8864 181.049 85.8857C181.049 85.885 181.049 85.8843 181.049 85.8835C180.75 85.7429 180.445 85.6081 180.14 85.4851C177.755 84.5529 175.154 84.3169 172.64 84.8043C170.126 85.2918 167.802 86.4828 165.938 88.2389C162.188 91.8189 160.501 97.7307 161.69 103.092Z" fill="#2F2E41"/>
<path d="M169.693 82.1881C169.57 82.6112 169.327 82.9897 168.993 83.2775C168.66 83.5653 168.25 83.7501 167.813 83.8095C166.162 85.8513 164.27 88.0132 161.682 88.4216C160.942 88.5785 160.17 88.4452 159.526 88.0492C159.447 87.9998 159.375 87.9413 159.31 87.8751C158.697 87.2926 158.649 86.1215 159.376 85.6832C156.121 86.9743 154.217 90.4874 153.737 93.9524C153.256 97.4174 153.923 100.919 154.361 104.39C154.8 107.861 154.992 111.506 153.629 114.731C152.019 118.532 148.32 121.264 144.285 122.135C143.924 122.213 143.564 122.279 143.198 122.321C142.954 120.673 142.342 119.101 141.408 117.721C141.655 119.318 141.509 120.95 140.982 122.477C137.947 122.435 134.967 121.665 132.292 120.232C128.635 118.304 125.59 115.361 123.098 112.064C127.392 115.109 133.325 116.25 137.997 113.842C142.177 111.68 144.645 107.14 145.726 102.564C146.807 97.9819 142.263 92.3681 142.756 87.69C143.254 83.0119 148.897 79.0413 151.983 75.4922C153.953 73.2282 156.86 71.5527 159.856 71.8349C160.868 71.9314 161.848 72.2448 162.728 72.7538C163.608 73.2629 164.367 73.9556 164.956 74.7848C165.544 75.614 165.946 76.5602 166.136 77.559C166.325 78.5578 166.297 79.5856 166.054 80.5726C166.906 79.3656 169.11 79.6298 169.657 81.005C169.803 81.3837 169.816 81.8012 169.693 82.1881Z" fill="#2F2E41"/>
<path d="M162.024 103.033C162.024 103.033 165.662 89.4517 181.259 86.317C181.277 86.3112 181.336 86.2878 181.412 86.2527C181.459 86.2233 181.517 86.194 181.576 86.1648C181.4 86.0651 181.23 85.9773 181.054 85.8893C181.054 85.8893 181.053 85.8892 181.052 85.8889C181.051 85.8886 181.051 85.8882 181.05 85.8876C181.05 85.8871 181.049 85.8864 181.049 85.8857C181.049 85.885 181.049 85.8842 181.049 85.8835C180.896 85.7429 180.744 85.6022 180.586 85.4675L180.14 85.4851C180.14 85.4851 164.491 83.0067 162.024 103.033Z" fill="#FD6584"/>
<path d="M201.167 167.755C201.028 167.401 200.794 167.093 200.491 166.864C200.188 166.634 199.828 166.492 199.45 166.454C198.692 166.388 197.93 166.499 197.222 166.777C194.444 167.702 191.949 169.324 189.976 171.487L190.01 172.862C189.083 174.044 188.589 175.507 188.608 177.008C188.628 178.51 189.16 179.96 190.118 181.117C190.658 181.783 191.396 182.26 192.224 182.481C192.639 182.584 193.073 182.573 193.482 182.45C193.891 182.327 194.258 182.096 194.547 181.781C195.377 180.769 194.976 179.246 194.365 178.089C193.3 176.076 191.741 174.366 189.834 173.121C193.018 173.04 196.145 172.262 198.996 170.843C199.628 170.567 200.198 170.167 200.673 169.667C200.908 169.414 201.076 169.107 201.162 168.773C201.248 168.439 201.25 168.089 201.167 167.755Z" fill="#2F2E41"/>
<path d="M258.256 248.644L252.313 248.879C250.826 251.627 250.033 254.696 250.003 257.82C253.539 253.538 260.312 254.108 265.054 251.217C266.525 250.303 267.773 249.071 268.704 247.61C269.634 246.149 270.224 244.497 270.43 242.777L272.65 239.19C269.9 238.683 267.073 238.778 264.364 239.468C261.654 240.159 259.126 241.429 256.955 243.191C255.746 244.191 254.669 245.339 253.747 246.609C256.015 247.482 258.256 248.644 258.256 248.644Z" fill="#F2F2F2"/>
<path d="M228.602 313.248L222.659 313.483C221.172 316.231 220.379 319.3 220.349 322.424C223.885 318.142 230.658 318.712 235.4 315.82C236.871 314.907 238.119 313.674 239.05 312.213C239.98 310.752 240.57 309.101 240.776 307.381L242.996 303.794C240.246 303.286 237.419 303.381 234.71 304.072C232 304.763 229.472 306.033 227.301 307.794C226.092 308.794 225.014 309.943 224.093 311.213C226.361 312.085 228.602 313.248 228.602 313.248Z" fill="#F2F2F2"/>
<path d="M88.5195 221.777L83.4815 218.615C80.7032 220.043 78.3155 222.128 76.5258 224.689C81.8625 223.152 87.1301 227.448 92.6761 227.739C94.4065 227.817 96.1322 227.504 97.7254 226.824C99.3185 226.144 100.738 225.114 101.879 223.811L105.738 222.104C103.755 220.133 101.368 218.615 98.7416 217.654C96.1154 216.694 93.3123 216.314 90.5253 216.542C88.963 216.685 87.425 217.024 85.9475 217.551C87.3262 219.552 88.5195 221.777 88.5195 221.777Z" fill="#F2F2F2"/>
<path d="M236.967 83.8306C236.849 83.0346 237.712 82.4673 238.035 81.7302C238.243 81.0725 238.243 80.3668 238.035 79.7091C237.849 78.8156 237.634 77.8678 236.987 77.2239C236.326 76.6683 235.511 76.3269 234.652 76.245C232.562 75.8802 230.429 75.8424 228.328 76.1331L229.921 76.2301C228.918 76.166 227.911 76.2829 226.948 76.5751C226.468 76.7266 226.034 76.9962 225.686 77.3592C225.337 77.7221 225.086 78.1668 224.954 78.6524C224.757 79.6362 225.429 80.7885 226.429 80.8728C225.93 80.7711 225.411 80.8711 224.985 81.1511C224.559 81.431 224.261 81.8681 224.157 82.3668C224.053 82.8655 224.15 83.3852 224.427 83.8125C224.705 84.2398 225.14 84.5399 225.638 84.6471C225.408 85.2689 224.724 85.5666 224.138 85.8767C223.552 86.1869 222.936 86.7188 223.035 87.3743C223.165 88.241 224.324 88.4191 225.199 88.3809L234.732 87.9649C235.553 87.9942 236.369 87.8248 237.11 87.4711C237.817 87.059 238.31 86.1557 237.983 85.4055C237.731 84.8261 237.06 84.4556 236.967 83.8306Z" fill="#3F3D56"/>
<path d="M126.405 168.737C125.094 174.493 124.472 181.018 127.966 186.169C129.452 188.379 131.631 190.03 134.161 190.862C136.721 191.621 139.42 191.787 142.054 191.347C148.014 190.521 153.311 187.416 159.173 186.211C161.76 185.679 164.505 185.503 166.995 186.527C168.861 187.294 170.826 188.836 170.835 191.036C170.844 193.295 168.883 194.794 166.931 195.489C164.328 196.415 161.622 196.057 158.922 195.94C156.013 195.814 153.047 196.077 150.631 197.858C148.553 199.48 146.96 201.641 146.024 204.105C144.809 207.053 144.316 210.222 143.54 213.297C142.845 216.062 141.864 218.746 140.61 221.306C138.15 226.325 134.702 230.794 130.473 234.447C128.387 236.242 125.852 238.071 123.003 238.235C120.806 238.362 118.135 237.439 117.288 235.213C116.973 234.252 117.004 233.212 117.375 232.271C117.746 231.331 118.434 230.549 119.319 230.061C121.203 229.111 123.253 230.467 123.862 232.327C124.021 232.756 124.077 233.217 124.024 233.671C123.972 234.126 123.813 234.562 123.559 234.943C122.988 235.794 124.364 236.59 124.931 235.745C126.248 233.781 125.56 231.14 123.947 229.567C123.16 228.765 122.108 228.276 120.988 228.193C119.867 228.109 118.755 228.437 117.858 229.113C116.926 229.823 116.221 230.789 115.831 231.893C115.44 232.998 115.38 234.192 115.659 235.33C116.336 237.774 118.738 239.329 121.137 239.715C124.099 240.19 126.95 239.026 129.341 237.344C131.74 235.612 133.922 233.597 135.838 231.343C139.734 226.862 142.663 221.625 144.441 215.96C146.19 210.357 146.317 202.955 151.513 199.171C154.186 197.224 157.462 197.44 160.597 197.619C163.364 197.776 166.063 197.748 168.602 196.495C170.698 195.461 172.389 193.551 172.424 191.119C172.46 188.663 170.716 186.689 168.662 185.57C163.235 182.615 156.719 184.998 151.387 186.973C146.026 188.958 139.905 191.289 134.207 189.199C131.578 188.178 129.461 186.155 128.32 183.574C126.941 180.648 126.744 177.329 127.063 174.153C127.251 172.472 127.543 170.804 127.936 169.159C128.163 168.164 126.632 167.739 126.405 168.737L126.405 168.737Z" fill="#3F3D56"/>
<path d="M152.715 200.768C152.227 200.154 151.88 199.44 151.697 198.677C151.515 197.914 151.503 197.12 151.66 196.352C151.818 195.584 152.142 194.859 152.61 194.23C153.078 193.6 153.678 193.081 154.369 192.708L146.294 168.803L152.887 143.469L163.52 148.276L156.959 167.384L161.867 195.198C162.416 196.399 162.505 197.76 162.118 199.023C161.73 200.285 160.893 201.362 159.765 202.048C158.637 202.735 157.296 202.984 155.997 202.748C154.697 202.512 153.53 201.807 152.715 200.768L152.715 200.768Z" fill="#FFB6B6"/>
<path d="M162.447 122.595C162.447 122.595 159.95 121.254 158.213 127.003C156.823 131.605 147.361 156.594 147.19 163.267C146.274 163.457 145.447 163.946 144.84 164.658C144.233 165.37 143.879 166.263 143.836 167.198L157.578 169.099C159.99 167.083 158.781 165.367 157.855 164.551L162.536 156.622L172.319 135.218L164.269 123.533L162.447 122.595Z" fill="#E6E6E6"/>
<path d="M136.142 152.59C134.571 157.835 132.203 162.807 129.12 167.332C128.358 168.445 127.556 169.528 126.716 170.584C126.063 169.397 125.272 168.291 124.36 167.29C121.156 163.769 116.861 161.465 112.694 159.156C108.527 156.848 104.296 154.369 101.351 150.626C100.03 148.94 99.0841 146.992 98.5765 144.912C97.9093 142.089 98.1635 139.145 99.8103 136.789C102.204 133.363 106.975 132.155 111.031 133.146C115.093 134.136 118.492 136.958 121.129 140.199C120.266 136.217 124.466 132.372 128.527 132.722C132.589 133.077 135.845 136.625 136.926 140.554C138.011 144.478 137.307 148.682 136.142 152.59Z" fill="#244757"/>
<path d="M214.654 6.90183C212.502 7.25322 210.444 8.03821 208.604 9.20916C206.765 10.3801 205.182 11.9126 203.953 13.7137C202.707 15.5732 201.877 17.6796 201.519 19.8892C201.162 22.0989 201.285 24.3596 201.881 26.5172C202.55 29.0191 203.821 31.3193 205.583 33.2171C206.281 33.9671 207.403 32.8418 206.707 32.0938C205.319 30.5711 204.27 28.7712 203.629 26.8131C202.988 24.855 202.77 22.7833 202.989 20.7347C203.225 18.7658 203.877 16.8697 204.902 15.1723C205.927 13.475 207.302 12.0153 208.935 10.8903C210.765 9.60771 212.867 8.76683 215.076 8.43369C216.084 8.282 215.656 6.75101 214.654 6.90183V6.90183Z" fill="#3F3D56"/>
<g opacity="0.2">
<path d="M269.146 31.9616C268.422 32.8375 267.626 33.6522 266.768 34.3974C253.44 45.9519 242.611 58.6185 234.578 72.0422L231.681 76.8822L231.485 77.2158C230.803 76.7018 230.207 76.0814 229.722 75.3783C227.868 72.683 227.858 69.1404 228.313 65.8996C229.69 56.1825 234.634 47.3256 242.182 41.0524C249.729 34.7793 259.341 31.5388 269.146 31.9616Z" fill="black"/>
</g>
<g opacity="0.2">
<path d="M129.12 167.332C128.358 168.444 127.556 169.528 126.716 170.584C126.063 169.397 125.272 168.291 124.36 167.29C121.156 163.769 116.861 161.465 112.694 159.156C108.527 156.848 104.296 154.369 101.351 150.626C100.03 148.94 99.0841 146.992 98.5765 144.912C107.945 146.211 116.553 150.777 122.882 157.806C125.416 160.659 127.518 163.869 129.12 167.332Z" fill="black"/>
</g>
<path d="M230.659 77.0993C231.829 77.0993 232.777 76.151 232.777 74.9812C232.777 73.8113 231.829 72.863 230.659 72.863C229.489 72.863 228.541 73.8113 228.541 74.9812C228.541 76.151 229.489 77.0993 230.659 77.0993Z" fill="#3F3D56"/>
</g>
<defs>
<clipPath id="clip0_49_23">
<rect width="337.67" height="345.5" fill="white"/>
</clipPath>
</defs>
</svg>
