<svg width="278" height="309" viewBox="0 0 278 309" fill="none" xmlns="http://www.w3.org/2000/svg">
<g clip-path="url(#clip0_52_125)">
<path d="M71.8101 258.221C71.408 257.543 69.6685 258.269 69.3487 257.654C69.03 257.041 70.6462 256.107 71.5696 253.973C71.7361 253.588 72.7854 251.163 72.0086 250.414C70.5362 248.996 63.7983 254.849 61.4404 252.934C60.9229 252.513 60.5614 251.674 58.9952 250.312C58.3721 249.77 57.9954 249.525 57.6308 249.616C57.1134 249.745 57.0724 250.437 56.5176 251.799C55.6856 253.841 55.1935 253.717 54.7088 255.346C54.3489 256.556 54.4311 257.259 54.0076 257.396C53.4084 257.59 52.8568 256.307 52.0974 256.422C51.3225 256.539 50.854 258.033 50.706 259.151C50.4283 261.249 51.1989 262.634 51.626 264.09C52.0902 265.672 52.3656 268.078 51.2937 271.485L40.6843 301.377C43.0266 295.243 49.8084 278.429 52.6582 272.18C53.4808 270.377 54.3892 268.547 56.2543 267.825C58.0499 267.13 60.516 267.545 63.66 266.787C64.0272 266.699 65.0461 266.44 65.1744 265.84C65.2804 265.345 64.6811 265.068 64.7732 264.604C64.8967 263.982 66.0753 263.974 67.5236 263.256C68.5449 262.75 69.1812 262.147 69.7283 261.63C69.8933 261.473 72.3454 259.124 71.8101 258.221H71.8101L71.8101 258.221H71.8101Z" fill="#F2F2F2"/>
<path d="M30.0696 273.958C29.6208 273.959 29.4752 275.023 29.0809 275.002C28.688 274.981 28.6959 273.919 27.9149 272.85C27.7741 272.657 26.8866 271.442 26.2951 271.608C25.1741 271.921 26.103 276.917 24.4825 277.522C24.1268 277.654 23.6106 277.59 22.49 277.965C22.0442 278.114 21.8154 278.229 21.7548 278.434C21.669 278.725 21.997 278.945 22.5051 279.61C23.2672 280.608 23.0647 280.814 23.7244 281.522C24.2141 282.047 24.5829 282.21 24.5279 282.457C24.4502 282.807 23.6615 282.708 23.4987 283.114C23.3326 283.528 23.9305 284.189 24.4366 284.584C25.3863 285.326 26.2883 285.347 27.1261 285.557C28.0366 285.786 29.2971 286.345 30.6597 287.854L42.2698 301.686C39.9351 298.767 33.6393 290.587 31.3949 287.385C30.7469 286.461 30.1111 285.487 30.2948 284.363C30.4717 283.282 31.387 282.191 31.9224 280.429C31.9849 280.224 32.1517 279.649 31.8945 279.413C31.682 279.218 31.3733 279.432 31.1721 279.253C30.9022 279.013 31.2385 278.432 31.304 277.514C31.3501 276.867 31.2381 276.381 31.1418 275.963C31.1127 275.837 30.667 273.955 30.0696 273.958V273.958L30.0696 273.958Z" fill="#F2F2F2"/>
<path d="M39.0228 275.967L38.7524 273.554L38.876 273.371C39.4476 272.525 39.739 271.698 39.7425 270.914C39.7431 270.789 39.7373 270.664 39.7314 270.537C39.7081 270.034 39.679 269.408 40.0053 268.678C40.1883 268.272 40.7023 267.33 41.475 267.447C41.683 267.476 41.8404 267.571 41.9598 267.683C41.9773 267.655 41.9954 267.627 42.0146 267.597C42.2553 267.23 42.4458 267.072 42.6294 266.921C42.7704 266.804 42.9161 266.684 43.1445 266.4C43.2447 266.275 43.3228 266.166 43.3887 266.074C43.5886 265.795 43.8496 265.463 44.31 265.469C44.8018 265.492 45.0594 265.899 45.2301 266.168C45.5349 266.648 45.673 266.994 45.7645 267.224C45.7977 267.308 45.8356 267.402 45.8548 267.431C46.0133 267.665 47.3018 267.447 47.7872 267.367C48.8775 267.186 49.8209 267.028 50.2096 267.716C50.4882 268.208 50.2813 268.858 49.5762 269.701C49.3565 269.963 49.1228 270.162 48.9153 270.318C49.0873 270.421 49.2411 270.578 49.3035 270.825C49.4503 271.41 48.9474 271.997 47.8093 272.57C47.5267 272.713 47.1462 272.905 46.613 272.997C46.3618 273.04 46.1357 273.05 45.9422 273.056C45.9382 273.168 45.9119 273.289 45.8438 273.414C45.6439 273.781 45.2278 273.956 44.6008 273.914C43.9108 273.878 43.3427 273.746 42.8415 273.631C42.4039 273.53 42.0268 273.445 41.7308 273.465C41.1819 273.509 40.7588 273.949 40.2623 274.519L39.0229 275.967H39.0228L39.0228 275.967Z" fill="#F2F2F2"/>
<path d="M40.277 261.596L38.0108 262.47L37.8025 262.397C36.839 262.059 35.9658 261.986 35.2062 262.182C35.0855 262.213 34.9663 262.25 34.8449 262.288C34.3638 262.438 33.7658 262.625 32.9773 262.495C32.5375 262.421 31.4962 262.163 31.4129 261.386C31.3883 261.177 31.4409 261 31.5188 260.857C31.4873 260.847 31.4557 260.836 31.4215 260.825C31.0053 260.686 30.8048 260.541 30.6117 260.402C30.4632 260.295 30.3101 260.185 29.9771 260.036C29.831 259.971 29.7052 259.923 29.5995 259.883C29.2793 259.76 28.8918 259.592 28.7807 259.145C28.6785 258.663 29.0066 258.311 29.2237 258.077C29.6109 257.661 29.9107 257.439 30.1096 257.293C30.1823 257.239 30.264 257.179 30.2873 257.153C30.4726 256.94 29.935 255.749 29.7352 255.3C29.2828 254.291 28.8913 253.419 29.4578 252.868C29.8629 252.474 30.5445 252.509 31.5384 252.978C31.8478 253.124 32.0998 253.299 32.3035 253.46C32.3591 253.268 32.4723 253.079 32.6955 252.956C33.2242 252.666 33.9188 253.003 34.7621 253.959C34.9725 254.196 35.2539 254.515 35.4782 255.008C35.5836 255.24 35.6511 255.456 35.7058 255.642C35.8151 255.617 35.939 255.612 36.0769 255.646C36.4827 255.746 36.7573 256.104 36.8758 256.722C37.0159 257.398 37.0326 257.981 37.0481 258.495C37.0622 258.944 37.0755 259.33 37.1698 259.611C37.3518 260.131 37.8841 260.429 38.5614 260.765L40.2771 261.596H40.277V261.596Z" fill="#F2F2F2"/>
<path d="M39.0228 254.485L38.7524 252.072L38.876 251.889C39.4476 251.043 39.739 250.216 39.7425 249.432C39.7431 249.307 39.7373 249.183 39.7314 249.055C39.7081 248.552 39.679 247.926 40.0053 247.197C40.1883 246.79 40.7023 245.848 41.475 245.965C41.683 245.994 41.8404 246.089 41.9598 246.201C41.9773 246.173 41.9954 246.145 42.0146 246.115C42.2553 245.748 42.4458 245.591 42.6294 245.439C42.7704 245.322 42.9161 245.202 43.1445 244.918C43.2447 244.793 43.3228 244.684 43.3887 244.592C43.5886 244.313 43.8496 243.981 44.31 243.987C44.8018 244.01 45.0594 244.417 45.2301 244.686C45.5349 245.166 45.673 245.513 45.7645 245.742C45.7977 245.826 45.8356 245.92 45.8548 245.95C46.0133 246.183 47.3018 245.965 47.7872 245.885C48.8775 245.704 49.8209 245.546 50.2096 246.234C50.4882 246.726 50.2813 247.376 49.5762 248.219C49.3565 248.481 49.1228 248.68 48.9153 248.836C49.0873 248.939 49.2411 249.096 49.3035 249.343C49.4503 249.928 48.9474 250.515 47.8093 251.088C47.5267 251.231 47.1462 251.423 46.613 251.515C46.3618 251.558 46.1357 251.568 45.9422 251.574C45.9382 251.686 45.9119 251.807 45.8438 251.932C45.6439 252.299 45.2278 252.474 44.6008 252.432C43.9108 252.396 43.3427 252.264 42.8415 252.149C42.4039 252.048 42.0268 251.963 41.7308 251.983C41.1819 252.028 40.7588 252.467 40.2623 253.037L39.0229 254.485H39.0228L39.0228 254.485Z" fill="#F2F2F2"/>
<path d="M41.4924 301.337L40.9866 301.02L40.8642 300.436L40.9866 301.02L40.3969 301.088C40.3875 301.033 40.3555 300.907 40.3071 300.71C40.0432 299.631 39.2384 296.347 38.5671 291.174C38.0985 287.564 37.8334 283.852 37.7786 280.14C37.7239 276.422 37.8998 273.607 38.0409 271.345C38.1475 269.639 38.2769 268.014 38.4039 266.431C38.7419 262.203 39.0606 258.209 38.8235 253.787C38.771 252.8 38.6609 250.745 37.4605 248.559C36.7641 247.291 35.8049 246.165 34.6091 245.214L35.3527 244.279C36.6726 245.331 37.7337 246.578 38.5071 247.986C39.838 250.41 39.9581 252.649 40.0158 253.724C40.257 258.224 39.9348 262.257 39.5933 266.526C39.4674 268.103 39.338 269.72 39.232 271.42C39.0921 273.661 38.9179 276.451 38.9721 280.121C39.0257 283.789 39.2879 287.455 39.75 291.021C40.4132 296.128 41.2063 299.363 41.4668 300.426C41.6055 300.993 41.6346 301.112 41.4924 301.337H41.4924H41.4924Z" fill="#F2F2F2"/>
<path d="M32.4203 247.11C32.3714 247.11 32.3219 247.109 32.2717 247.106C31.2555 247.051 30.3143 246.443 29.474 245.298C29.0801 244.76 28.8785 244.145 28.4764 242.92C28.414 242.732 28.111 241.774 27.9269 240.456C27.8062 239.594 27.8214 239.234 27.9921 238.916C28.1815 238.562 28.488 238.315 28.833 238.148C28.8179 238.034 28.8301 237.916 28.8796 237.796C29.083 237.298 29.6238 237.364 29.9163 237.395C30.0643 237.414 30.2491 237.438 30.4484 237.428C30.7619 237.412 30.9303 237.319 31.1855 237.179C31.4297 237.045 31.7333 236.879 32.1838 236.787C33.0719 236.601 33.816 236.853 34.0613 236.936C35.3521 237.366 35.9884 238.369 36.725 239.531C36.8719 239.764 37.3759 240.613 37.7087 241.776C37.9487 242.615 37.915 242.988 37.8427 243.265C37.6958 243.835 37.3491 244.162 36.4686 244.882C35.549 245.636 35.0875 246.014 34.6913 246.243C33.7688 246.776 33.1895 247.11 32.4203 247.11H32.4203Z" fill="#F2F2F2"/>
<path d="M277.67 301.271C277.67 301.492 277.491 301.671 277.27 301.671H0V300.871H277.27C277.491 300.871 277.67 301.05 277.67 301.271Z" fill="#E6E6E6"/>
<path d="M125.046 86.8085C122.227 83.5153 118.243 82.3002 116.148 84.0943C114.052 85.8884 114.639 90.0118 117.459 93.3058C118.567 94.6371 119.979 95.6836 121.574 96.3577L133.693 110.16L140.049 104.335L127.427 91.3467C127.007 89.6655 126.191 88.1093 125.046 86.8085Z" fill="#FFB6B6"/>
<path d="M216.008 103.64C216.008 103.64 218.659 115.773 208.138 119.642C197.618 123.51 170.354 138.365 168.336 137.684C166.318 137.003 159.716 140.327 151.923 133.237C144.131 126.148 125.305 104.774 125.305 104.774L133.049 94.257L162.204 114.398C162.204 114.398 162.828 114.213 165.591 113.926C168.355 113.64 166.194 115.383 170.517 111.896C174.84 108.409 202.431 95.9135 202.431 95.9135C202.431 95.9135 210.528 91.9014 216.008 103.64L216.008 103.64V103.64Z" fill="#2F2E41"/>
<path d="M147.213 272.888L151.499 286.7L139.593 294.796L131.02 287.176C131.02 287.176 134.354 275.27 132.925 272.412L147.213 272.888Z" fill="#FFB6B6"/>
<path d="M207.696 77.1517L214.524 92.2153L194.544 104.635L193.408 86.6766L207.696 77.1517Z" fill="#FFB6B6"/>
<path opacity="0.1" d="M207.696 77.1517L214.524 92.2153L194.544 104.635L193.408 86.6766L207.696 77.1517Z" fill="black"/>
<path d="M271.143 128.676C264.484 124.842 258.15 130.966 252.248 150.314C252.248 150.314 227.319 185.622 227.311 200.356H155.996L140.22 222.733L139.008 222.926C139.008 222.926 146.918 224.817 159.335 226.9V301.286H163.594V227.593C167.311 228.178 171.348 228.763 175.632 229.313V301.286H179.891V229.836C191.814 231.239 205.345 232.296 219.071 232.296C219.946 232.296 220.793 232.279 221.626 232.254V301.286H225.885V232.015C232.757 231.426 238.03 229.943 242.068 227.956V301.286H246.326V225.37C257.14 217.295 254.844 205.04 254.844 205.04C251.593 185.539 267.195 156.116 274.767 143.274C277.737 138.236 276.212 131.594 271.143 128.676V128.676Z" fill="#CCCCCC"/>
<path d="M199.843 90.5809C207.856 90.5809 214.352 84.0853 214.352 76.0724C214.352 68.0596 207.856 61.5639 199.843 61.5639C191.83 61.5639 185.335 68.0596 185.335 76.0724C185.335 84.0853 191.83 90.5809 199.843 90.5809Z" fill="#FFB6B6"/>
<path d="M194.361 101.44L214.839 87.6291L211.506 204.309C211.506 204.309 194.599 175.02 181.74 173.591C181.74 173.591 183.169 170.258 184.121 168.353C185.074 166.448 186.503 156.923 186.503 156.923L193.17 105.488L194.361 101.44V101.44Z" fill="#244757"/>
<path d="M210.791 222.168L192.694 158.351C192.694 158.351 195.551 106.917 214.839 87.6291L219.364 94.5346C219.364 94.5346 223.837 95.1984 223.029 98.2002C222.221 101.202 240.795 211.691 240.795 211.691H221.544C221.544 211.691 219.84 222.168 210.791 222.168Z" fill="#2F2E41"/>
<path d="M194.361 101.44V99.5352C194.361 99.5352 185.55 100.25 185.074 105.488C184.598 110.727 180.788 131.206 184.598 143.588L179.835 151.208L176.501 169.305L186.979 172.163L192.694 128.215C192.694 128.215 196.504 105.012 194.361 101.44V101.44Z" fill="#2F2E41"/>
<path d="M211.268 192.165C211.268 192.165 219.364 215.501 202.219 215.977C185.074 216.453 158.365 216.453 158.365 216.453L145.07 223.597L148.879 275.508L122.21 275.984C122.21 275.984 113.637 212.167 121.257 204.547C128.877 196.927 150.784 188.831 150.784 188.831L176.025 175.973L183.124 167.355L211.268 192.165Z" fill="#2F2E41"/>
<path d="M212.239 84.5335C213.251 84.1741 222.721 73.0749 214.839 65.7218C214.839 65.7218 211.768 56.7393 199.52 57.6814C187.272 58.6236 183.974 65.3227 183.974 68.804C183.974 72.2852 187.217 76.1992 187.217 76.1992C187.217 76.1992 184.916 66.6321 190.098 67.1032C195.28 67.5743 193.867 69.4587 197.635 68.5165C201.404 67.5743 205.173 68.9876 205.173 68.9876L208.942 70.4008V76.1485C208.942 76.1485 210.585 74.8298 210.705 76.1485C210.826 77.4672 212.239 84.5335 212.239 84.5335Z" fill="#2F2E41"/>
<path d="M130.306 202.166L129.83 216.93L111.256 213.596C111.256 213.596 119.231 200.471 118.101 196.794L130.306 202.166Z" fill="#FFB6B6"/>
<path d="M128.401 213.596C128.401 213.596 131.734 213.596 131.734 215.501C131.734 217.406 136.973 232.169 126.972 232.646C116.971 233.122 117.447 231.217 117.447 231.217C117.447 231.217 89.3486 244.076 79.3475 225.026C79.3475 225.026 76.9662 220.263 82.6812 219.311C88.3961 218.358 111.256 210.384 111.256 210.384C111.256 210.384 124.591 215.501 128.401 213.596Z" fill="#2F2E41"/>
<path d="M147.689 286.7C147.689 286.7 151.022 282.661 151.499 283.013C151.975 283.366 162.452 295.272 155.309 298.606C148.165 301.939 144.355 303.368 144.355 303.368L142.45 300.511C142.45 300.511 128.163 314.322 106.255 304.797C106.255 304.797 104.35 300.511 108.637 299.558C112.923 298.606 131.02 284.093 131.02 284.093C131.02 284.093 138.64 289.557 142.45 288.605C146.26 287.652 147.689 286.7 147.689 286.7Z" fill="#2F2E41"/>
<path d="M181.74 172.163C181.74 172.163 137.211 149.541 133.401 149.541C129.591 149.541 122.309 151.108 120.711 158.421C119.114 165.733 109.589 200.975 109.589 200.975L132.925 206.69L141.974 181.449L156.737 194.784L181.74 179.874V172.163Z" fill="#2F2E41"/>
<path d="M160.773 163.424C156.484 164.053 153.332 166.776 153.733 169.506C154.134 172.235 157.936 173.936 162.226 173.306C163.943 173.078 165.581 172.442 167.002 171.451L185.14 168.554L183.599 160.072L165.882 163.828C164.236 163.287 162.484 163.148 160.773 163.424Z" fill="#FFB6B6"/>
<path d="M223.499 95.4318C223.499 95.4318 235.178 99.6562 232.843 110.62C230.509 121.584 228.545 152.569 226.894 153.913C225.242 155.258 224.534 162.616 214.383 165.43C204.231 168.244 175.098 180.701 175.098 180.701L171.341 160.623L203.922 146.69C203.922 146.69 204.098 146.064 205.329 143.572C206.559 141.081 206.882 143.839 206.236 138.323C205.591 132.807 209.725 102.801 209.725 102.801C209.725 102.801 210.646 93.812 223.499 95.4318L223.499 95.4318Z" fill="#2F2E41"/>
<path d="M118.043 6.63697C117.984 6.69413 117.93 6.75428 117.872 6.81192C108.789 -2.20081 94.1623 -2.2801 84.9826 6.63356C75.7703 15.5824 75.459 30.2729 84.284 39.6039L84.2782 39.6095L84.498 39.8358L116.996 73.2963L150.683 40.5787L150.589 40.4823C150.646 40.4284 150.704 40.3784 150.761 40.3237C160.063 31.2891 160.28 16.424 151.245 7.12158C142.211 -2.18077 127.345 -2.39773 118.043 6.63696L118.043 6.63697Z" fill="#244757"/>
</g>
<defs>
<clipPath id="clip0_52_125">
<rect width="277.67" height="308.147" fill="white"/>
</clipPath>
</defs>
</svg>
