<svg width="338" height="169" viewBox="0 0 338 169" fill="none" xmlns="http://www.w3.org/2000/svg">
<g clip-path="url(#clip0_52_102)">
<path d="M79.4367 146.706C78.5702 153.534 75.5463 159.83 72.1748 165.887C72.008 166.189 71.841 166.487 71.6695 166.789H27.9908C27.2146 166.514 26.4517 166.212 25.6936 165.887C22.8988 164.712 20.245 163.227 17.7819 161.459C3.57436 151.223 -1.89544 131.88 0.577774 114.549C2.10759 103.776 6.8374 92.782 16.0399 86.9826C21.0368 83.942 26.9966 82.8977 32.7296 84.058C32.8786 84.0851 33.0276 84.1167 33.1765 84.1528C37.9874 85.236 42.275 87.9258 44.7167 92.263C49.1036 100.057 46.4904 109.711 44.333 118.385C42.1802 127.064 41.016 137.445 47.2576 143.844C46.3419 141.169 46.1554 138.298 46.7172 135.526C47.279 132.755 48.5689 130.183 50.4542 128.075C52.3395 125.967 54.7521 124.4 57.444 123.534C60.136 122.667 63.01 122.534 65.7707 123.147C66.222 123.242 66.6689 123.35 67.1112 123.485C68.1712 123.796 69.1931 124.224 70.1576 124.762C77.5186 128.874 80.4971 138.343 79.4367 146.706Z" fill="#F2F2F2"/>
<path d="M50.9585 165.887C51.9334 166.216 52.9171 166.514 53.9055 166.789H49.6316C48.8372 166.509 48.0488 166.209 47.2666 165.887C47.0951 165.819 46.9191 165.747 46.7476 165.675C40.2983 162.971 34.359 158.909 29.8683 153.502C27.6678 150.886 25.8726 147.955 24.5429 144.806C23.0967 141.248 22.1783 137.499 21.8169 133.676C21.0044 125.832 21.8304 117.772 23.3829 110.068C24.9843 102.082 27.5706 94.3264 31.0824 86.9781C31.5066 86.098 31.9429 85.2225 32.3912 84.3514C32.4228 84.2808 32.4695 84.218 32.5279 84.1673C32.5864 84.1166 32.6553 84.0793 32.7297 84.0581C32.8067 84.0435 32.8859 84.0444 32.9626 84.0607C33.0393 84.077 33.112 84.1083 33.1766 84.1528C33.3317 84.2417 33.4469 84.3869 33.4981 84.5582C33.5493 84.7296 33.5328 84.9141 33.4518 85.0735C29.8323 92.1312 27.089 99.6048 25.2829 107.328C23.5138 114.865 22.5073 122.75 22.8549 130.494C23.1797 137.733 25.0709 144.851 29.3628 150.772C33.3601 156.152 38.6189 160.467 44.6762 163.337C46.7119 164.324 48.8105 165.176 50.9585 165.887Z" fill="white"/>
<path d="M68.1853 166.789H66.529C66.2943 166.491 66.0686 166.189 65.8474 165.887C62.5891 161.459 60.368 156.355 59.3484 150.952C57.9594 143.386 59.0418 135.574 62.4356 128.671C63.3834 126.735 64.4994 124.887 65.7707 123.147C66.222 123.242 66.6689 123.35 67.1112 123.485C63.7629 127.92 61.5111 133.084 60.5399 138.555C59.7312 143.341 59.9283 148.243 61.1187 152.949C62.3091 157.655 64.4667 162.061 67.4541 165.887C67.6934 166.193 67.9371 166.496 68.1853 166.789Z" fill="white"/>
<path d="M152.858 84.0619C153.034 83.3754 153.057 82.6586 152.927 81.9619C152.796 81.2653 152.514 80.6058 152.101 80.0299C151.688 79.4541 151.153 78.9758 150.535 78.6288C149.917 78.2818 149.23 78.0746 148.523 78.0217L120.941 43.5365L114.116 49.8977L143.254 82.839C143.244 84.0323 143.672 85.1879 144.457 86.0868C145.241 86.9857 146.329 87.5654 147.513 87.7162C148.696 87.8669 149.894 87.5782 150.88 86.9047C151.865 86.2312 152.569 85.2197 152.858 84.0619Z" fill="#FFB8B8"/>
<path d="M126.232 49.0146L117.515 55.6903C117.267 55.8803 116.981 56.0145 116.677 56.0839C116.372 56.1534 116.056 56.1563 115.75 56.0926C115.444 56.0289 115.156 55.9 114.904 55.7148C114.653 55.5295 114.444 55.2922 114.292 55.0191L108.982 45.4469C108.018 44.1725 107.598 42.5675 107.815 40.984C108.032 39.4004 108.868 37.9676 110.14 36.9995C111.412 36.0314 113.015 35.6071 114.6 35.8197C116.184 36.0323 117.619 36.8643 118.59 38.1334L126.424 45.7283C126.648 45.9459 126.823 46.2091 126.936 46.5003C127.05 46.7914 127.099 47.1035 127.081 47.4154C127.062 47.7273 126.977 48.0316 126.831 48.3075C126.684 48.5835 126.48 48.8247 126.232 49.0146H126.232Z" fill="#CCCCCC"/>
<path d="M111.593 28.1962C117.715 28.1962 122.678 23.2333 122.678 17.1113C122.678 10.9893 117.715 6.02649 111.593 6.02649C105.471 6.02649 100.508 10.9893 100.508 17.1113C100.508 23.2333 105.471 28.1962 111.593 28.1962Z" fill="#FFB8B8"/>
<path d="M135.255 160.898H140.788L140.261 150.542L132.095 150.542L135.255 160.898Z" fill="#FFB8B8"/>
<path d="M133.844 159.091L144.74 159.091H144.741C145.652 159.091 146.555 159.271 147.398 159.62C148.24 159.968 149.006 160.48 149.651 161.125C150.296 161.77 150.807 162.535 151.156 163.378C151.505 164.22 151.685 165.123 151.685 166.035V166.261L133.844 166.261L133.844 159.091Z" fill="#2F2E41"/>
<path d="M76.2616 153.064L80.9688 155.972L85.9636 146.884L80.2671 143.321L76.2616 153.064Z" fill="#FFB8B8"/>
<path d="M76.0103 150.785L85.2808 156.512L85.2812 156.512C86.057 156.991 86.7309 157.619 87.2643 158.358C87.7976 159.098 88.1801 159.936 88.3898 160.823C88.5994 161.711 88.6323 162.631 88.4864 163.531C88.3405 164.431 88.0187 165.294 87.5394 166.069L87.4208 166.261L72.2423 156.885L76.0103 150.785Z" fill="#2F2E41"/>
<path d="M134.855 157.862C134.443 157.861 134.042 157.736 133.704 157.502C133.365 157.268 133.106 156.937 132.96 156.552L112.946 108.701C112.903 108.584 112.829 108.481 112.731 108.404C112.633 108.326 112.516 108.277 112.392 108.262C112.269 108.247 112.143 108.267 112.03 108.318C111.917 108.37 111.82 108.452 111.75 108.555L84.2541 151.869C83.9852 152.272 83.5803 152.566 83.1133 152.696C82.6463 152.826 82.1481 152.784 81.7094 152.577L77.9471 150.821C77.4652 150.594 77.0914 150.187 76.9056 149.688C76.7198 149.189 76.7368 148.636 76.9529 148.149L99.4793 97.9363C98.9876 96.7397 94.1899 84.4527 101.561 78.3824L101.613 78.3502L121.601 69.434L122.105 84.7674L142.029 153.894C142.104 154.154 142.126 154.426 142.094 154.695C142.062 154.964 141.977 155.224 141.843 155.459C141.71 155.695 141.53 155.901 141.316 156.066C141.101 156.231 140.856 156.352 140.594 156.42L135.375 157.794C135.205 157.839 135.031 157.862 134.855 157.862Z" fill="#2F2E41"/>
<path d="M121.904 47.0046C121.143 43.9499 120.064 40.8708 118.618 39.4493C118.086 38.931 117.587 38.3808 117.122 37.8018C116.149 36.5767 114.926 35.5741 113.534 34.8614C114.043 34.5779 114.342 34.2398 114.342 33.8759C114.342 32.8789 112.119 32.0706 109.377 32.0706C106.635 32.0706 104.413 32.8789 104.413 33.8759C104.419 33.9917 104.449 34.105 104.5 34.2094C104.55 34.3138 104.621 34.4071 104.708 34.4841C102.917 35.2139 101.362 36.4211 100.21 37.9741C99.0582 39.5271 98.3548 41.3664 98.1763 43.2916C97.5351 50.1588 97.3479 58.9368 99.595 64.4892C101.48 69.0806 101.63 74.2009 100.017 78.8947C99.9073 79.2216 99.894 79.573 99.9782 79.9072C100.062 80.2414 100.241 80.5445 100.492 80.7805C100.743 81.0165 101.057 81.1756 101.395 81.2389C101.734 81.3021 102.084 81.2669 102.404 81.1374L122.238 73.1449C122.571 73.0103 122.858 72.779 123.059 72.4806C123.26 72.1822 123.368 71.8305 123.368 71.4704V59.3312C123.384 55.1781 122.892 51.0385 121.904 47.0046Z" fill="#CCCCCC"/>
<path d="M83.9547 97.0021C84.6452 96.8417 85.292 96.532 85.8498 96.0946C86.4076 95.6572 86.8626 95.1028 87.183 94.4705C87.5033 93.8383 87.6811 93.1434 87.7038 92.435C87.7266 91.7266 87.5937 91.0218 87.3146 90.3702L102.833 49.4464L94.9635 47.4146L80.6096 87.917C79.5462 88.4584 78.7183 89.3711 78.2828 90.4822C77.8473 91.5932 77.8345 92.8254 78.2469 93.9453C78.6592 95.0652 79.468 95.9949 80.52 96.5582C81.572 97.1216 82.7941 97.2795 83.9547 97.0021V97.0021Z" fill="#FFB8B8"/>
<path d="M102.768 57.2116L92.8242 52.5569C92.5412 52.4244 92.2902 52.2326 92.0881 51.9943C91.886 51.7561 91.7376 51.4771 91.653 51.1764C91.5685 50.8756 91.5497 50.5602 91.5981 50.2516C91.6464 49.9429 91.7607 49.6484 91.9332 49.3879L97.9766 40.261C98.663 38.8183 99.8933 37.7064 101.398 37.1691C102.903 36.6318 104.559 36.7128 106.004 37.3944C107.449 38.0759 108.565 39.3025 109.107 40.8053C109.65 42.3082 109.574 43.9647 108.898 45.4121L105.773 55.8659C105.683 56.1652 105.53 56.4417 105.324 56.6765C105.118 56.9113 104.864 57.099 104.579 57.2267C104.293 57.3544 103.984 57.4191 103.672 57.4165C103.359 57.4139 103.051 57.344 102.768 57.2116Z" fill="#CCCCCC"/>
<path d="M121.775 14.383C122.275 14.4422 122.781 14.3507 123.229 14.1202C124.047 13.5851 123.966 12.3687 123.689 11.4315C123 9.18486 121.756 7.14807 120.071 5.50911C118.387 3.87015 116.317 2.68182 114.053 2.05379C112.475 1.63439 110.478 1.6506 109.575 3.01123C107.306 1.49993 104.571 0.85166 101.865 1.18399C99.1598 1.51632 96.6628 2.80725 94.8273 4.82267C92.976 6.85547 91.9148 9.50541 91.3649 12.1994C90.4177 16.8399 86.3613 26.4125 88.6083 30.5818C90.1036 33.3562 96.985 31.1945 99.8958 32.403C102.807 33.6114 106.345 33.4759 108.93 31.6737C111.516 29.8715 112.874 26.3129 111.765 23.3625C111.337 22.2216 110.593 21.2307 110.007 20.1621C109.421 19.0936 108.982 17.8583 109.244 16.6679C109.651 14.8141 118.4 14.3135 121.775 14.383Z" fill="#2F2E41"/>
<path d="M215.279 166.338C215.279 166.397 215.268 166.456 215.245 166.511C215.223 166.566 215.189 166.616 215.147 166.658C215.105 166.699 215.056 166.733 215.001 166.755C214.946 166.778 214.887 166.789 214.828 166.789H0.451319C0.331622 166.789 0.216827 166.742 0.132188 166.657C0.0475492 166.572 0 166.458 0 166.338C0 166.218 0.0475492 166.103 0.132188 166.019C0.216827 165.934 0.331622 165.887 0.451319 165.887H214.828C214.887 165.886 214.946 165.898 215.001 165.921C215.056 165.943 215.105 165.976 215.147 166.018C215.189 166.06 215.223 166.11 215.245 166.165C215.268 166.22 215.279 166.279 215.279 166.338Z" fill="#3F3D56"/>
<path d="M247.706 168.595C256.43 168.595 263.503 167.382 263.503 165.887C263.503 164.391 256.43 163.179 247.706 163.179C238.982 163.179 231.91 164.391 231.91 165.887C231.91 167.382 238.982 168.595 247.706 168.595Z" fill="#244757"/>
<path d="M337.219 166.988H276.742C276.622 166.988 276.507 166.94 276.423 166.856C276.338 166.771 276.291 166.656 276.291 166.537C276.291 166.417 276.338 166.302 276.423 166.218C276.507 166.133 276.622 166.085 276.742 166.085H337.219C337.338 166.085 337.453 166.133 337.538 166.218C337.622 166.302 337.67 166.417 337.67 166.537C337.67 166.656 337.622 166.771 337.538 166.856C337.453 166.94 337.338 166.988 337.219 166.988Z" fill="#3F3D56"/>
<path d="M235.965 48.4108C235.966 43.4939 237.652 38.7259 240.742 34.9015C243.833 31.077 248.14 28.4274 252.947 27.3941C249.813 26.7215 246.568 26.7584 243.45 27.5021C240.332 28.2459 237.419 29.6777 234.926 31.6926C232.433 33.7076 230.422 36.2547 229.04 39.1474C227.659 42.0401 226.942 45.2051 226.942 48.4108C226.942 51.6165 227.659 54.7816 229.04 57.6743C230.422 60.567 232.433 63.1141 234.926 65.129C237.419 67.1439 240.332 68.5757 243.45 69.3195C246.568 70.0632 249.813 70.1002 252.947 69.4275C248.14 68.3943 243.833 65.7446 240.742 61.9202C237.652 58.0957 235.966 53.3277 235.965 48.4108Z" fill="#244757"/>
<path d="M212.572 48.4108C212.572 36.6837 216.861 25.3617 224.631 16.5775C232.4 7.79326 243.113 2.15324 254.753 0.719843C247.999 -0.108117 241.146 0.507298 234.648 2.52538C228.15 4.54346 222.154 7.91822 217.057 12.4264C211.961 16.9347 207.879 22.4736 205.083 28.6769C202.287 34.8802 200.84 41.6065 200.837 48.4108C200.837 69.9638 232.534 130.743 244.439 152.81C244.871 153.613 245.513 154.284 246.295 154.751C247.078 155.219 247.973 155.466 248.885 155.466C249.797 155.466 250.692 155.219 251.475 154.751C252.258 154.284 252.9 153.613 253.332 152.81C253.778 151.984 254.254 151.098 254.753 150.167C241.937 126.242 212.572 69.1572 212.572 48.4108Z" fill="#244757"/>
<path d="M248.927 156.006C247.931 156.014 246.953 155.748 246.099 155.238C245.245 154.728 244.547 153.992 244.083 153.113C230.957 128.781 200.427 69.881 200.427 48.4996C200.427 35.6367 205.537 23.3006 214.633 14.2052C223.728 5.10976 236.064 0 248.927 0C261.79 0 274.126 5.10976 283.221 14.2052C292.317 23.3006 297.427 35.6367 297.427 48.4996C297.427 69.883 266.897 128.782 253.771 153.113C253.306 153.993 252.608 154.728 251.754 155.238C250.9 155.749 249.922 156.014 248.927 156.006ZM248.927 0.902638C236.308 0.91687 224.21 5.93611 215.287 14.8592C206.363 23.7823 201.344 35.8805 201.33 48.4996C201.33 69.6754 231.784 128.413 244.877 152.684C245.271 153.415 245.855 154.027 246.568 154.453C247.281 154.878 248.096 155.103 248.927 155.103C249.757 155.103 250.572 154.878 251.285 154.453C251.998 154.027 252.583 153.415 252.976 152.684C266.07 128.414 296.524 69.6774 296.524 48.4996C296.51 35.8805 291.49 23.7823 282.567 14.8592C273.644 5.93611 261.546 0.916874 248.927 0.902638Z" fill="#3F3D56"/>
<path d="M248.927 70.446C244.586 70.4461 240.343 69.159 236.734 66.7475C233.125 64.336 230.312 60.9085 228.651 56.8982C226.99 52.888 226.555 48.4753 227.402 44.218C228.248 39.9608 230.339 36.0503 233.408 32.9809C236.477 29.9116 240.388 27.8214 244.645 26.9746C248.902 26.1277 253.315 26.5624 257.325 28.2235C261.335 29.8845 264.763 32.6975 267.175 36.3066C269.586 39.9157 270.873 44.1589 270.873 48.4996C270.867 54.3181 268.552 59.8964 264.438 64.0107C260.324 68.125 254.745 70.4394 248.927 70.446ZM248.927 27.4555C244.765 27.4554 240.696 28.6896 237.235 31.0019C233.775 33.3142 231.077 36.6008 229.485 40.446C227.892 44.2913 227.475 48.5226 228.287 52.6047C229.099 56.6868 231.103 60.4365 234.046 63.3796C236.989 66.3227 240.739 68.327 244.821 69.139C248.903 69.951 253.134 69.5343 256.98 67.9416C260.825 66.3488 264.112 63.6516 266.424 60.191C268.736 56.7303 269.971 52.6617 269.971 48.4996C269.964 42.9203 267.745 37.5714 263.8 33.6263C259.855 29.6811 254.506 27.4619 248.927 27.4555V27.4555Z" fill="#3F3D56"/>
</g>
<defs>
<clipPath id="clip0_52_102">
<rect width="337.67" height="168.595" fill="white"/>
</clipPath>
</defs>
</svg>
